<svg width="173" height="36" viewBox="0 0 173 36" fill="none" xmlns="http://www.w3.org/2000/svg">
<rect width="173" height="36" rx="18" fill="#CBD6DC"/>
<path d="M37.9495 14.992V22.076H36.6475V14.992H37.9495ZM40.7355 17.904V19.15H33.8475V17.904H40.7355ZM54.6309 23H53.0489L52.1669 20.578H48.2889L47.4069 23H45.8669L49.3529 13.76H51.1449L54.6309 23ZM48.7089 19.36H51.7469L50.2349 15.048L48.7089 19.36ZM56.8155 14.824C56.4888 14.824 56.2368 14.7447 56.0595 14.586C55.8915 14.418 55.8075 14.1847 55.8075 13.886C55.8075 13.5873 55.8915 13.3587 56.0595 13.2C56.2368 13.0413 56.4888 12.962 56.8155 12.962C57.1328 12.962 57.3755 13.0413 57.5435 13.2C57.7208 13.3587 57.8095 13.5873 57.8095 13.886C57.8095 14.1847 57.7208 14.418 57.5435 14.586C57.3755 14.7447 57.1328 14.824 56.8155 14.824ZM57.5575 16V23.616C57.5575 24.2133 57.4455 24.6847 57.2215 25.03C57.0068 25.3847 56.7221 25.6367 56.3675 25.786C56.0221 25.9353 55.6535 26.01 55.2615 26.01C54.9441 26.01 54.6548 25.968 54.3935 25.884C54.1321 25.8 53.9128 25.688 53.7355 25.548L53.9875 24.344C54.1181 24.456 54.2768 24.5493 54.4635 24.624C54.6408 24.6987 54.8415 24.736 55.0655 24.736C55.3641 24.736 55.6021 24.638 55.7795 24.442C55.9661 24.2553 56.0595 23.9333 56.0595 23.476V16H57.5575ZM62.9393 15.86C63.6206 15.86 64.2226 16.0047 64.7453 16.294C65.2679 16.5833 65.6739 17.0033 65.9633 17.554C66.2619 18.0953 66.4113 18.744 66.4113 19.5C66.4113 20.256 66.2619 20.9093 65.9633 21.46C65.6739 22.0013 65.2679 22.4167 64.7453 22.706C64.2226 22.9953 63.6206 23.14 62.9393 23.14C62.2579 23.14 61.6559 22.9953 61.1333 22.706C60.6106 22.4167 60.1999 22.0013 59.9013 21.46C59.6026 20.9093 59.4533 20.256 59.4533 19.5C59.4533 18.744 59.6026 18.0953 59.9013 17.554C60.1999 17.0033 60.6106 16.5833 61.1333 16.294C61.6559 16.0047 62.2579 15.86 62.9393 15.86ZM62.9393 17.036C62.5193 17.036 62.1599 17.134 61.8613 17.33C61.5719 17.5167 61.3479 17.792 61.1893 18.156C61.0306 18.52 60.9513 18.968 60.9513 19.5C60.9513 20.0227 61.0306 20.4707 61.1893 20.844C61.3479 21.208 61.5719 21.488 61.8613 21.684C62.1599 21.8707 62.5193 21.964 62.9393 21.964C63.3593 21.964 63.7139 21.8707 64.0033 21.684C64.2926 21.488 64.5166 21.208 64.6753 20.844C64.8339 20.4707 64.9133 20.0227 64.9133 19.5C64.9133 18.968 64.8339 18.52 64.6753 18.156C64.5166 17.792 64.2926 17.5167 64.0033 17.33C63.7139 17.134 63.3593 17.036 62.9393 17.036ZM70.7878 23.14C70.3305 23.14 69.9058 23.056 69.5138 22.888C69.1311 22.72 68.8231 22.4493 68.5898 22.076C68.3565 21.7027 68.2398 21.2173 68.2398 20.62V16H69.7378V20.242C69.7378 20.8767 69.8731 21.3153 70.1438 21.558C70.4145 21.7913 70.7925 21.908 71.2778 21.908C71.5111 21.908 71.7351 21.8707 71.9498 21.796C72.1738 21.712 72.3745 21.586 72.5518 21.418C72.7291 21.2407 72.8645 21.0167 72.9578 20.746C73.0605 20.4753 73.1118 20.158 73.1118 19.794V16H74.6098V23H73.2938L73.2238 21.866C72.9811 22.3047 72.6545 22.6267 72.2438 22.832C71.8331 23.0373 71.3478 23.14 70.7878 23.14ZM78.9941 13.942V20.9C78.9941 21.2453 79.0828 21.4973 79.2601 21.656C79.4468 21.8147 79.6941 21.894 80.0021 21.894C80.2541 21.894 80.4734 21.8567 80.6601 21.782C80.8468 21.698 81.0194 21.586 81.1781 21.446L81.5141 22.538C81.2994 22.7247 81.0334 22.874 80.7161 22.986C80.4081 23.0887 80.0628 23.14 79.6801 23.14C79.2788 23.14 78.9101 23.0747 78.5741 22.944C78.2381 22.8133 77.9768 22.6033 77.7901 22.314C77.6034 22.0153 77.5054 21.628 77.4961 21.152V14.362L78.9941 13.942ZM81.4021 16V17.176H76.1521V16H81.4021ZM85.9637 23.14C85.2637 23.14 84.6477 22.9953 84.1157 22.706C83.5837 22.4167 83.1683 22.0013 82.8697 21.46C82.5803 20.9093 82.4357 20.256 82.4357 19.5C82.4357 18.744 82.5803 18.0953 82.8697 17.554C83.1683 17.0033 83.579 16.5833 84.1017 16.294C84.6243 16.0047 85.217 15.86 85.8797 15.86C86.561 15.86 87.1397 16 87.6157 16.28C88.0917 16.56 88.4557 16.9427 88.7077 17.428C88.9597 17.9133 89.0857 18.464 89.0857 19.08C89.0857 19.248 89.081 19.4067 89.0717 19.556C89.0623 19.7053 89.0483 19.836 89.0297 19.948H83.4017V18.8H88.3717L87.6297 19.024C87.6297 18.3893 87.471 17.904 87.1537 17.568C86.8363 17.2227 86.4023 17.05 85.8517 17.05C85.4503 17.05 85.1003 17.1433 84.8017 17.33C84.503 17.5167 84.2743 17.7967 84.1157 18.17C83.957 18.534 83.8777 18.982 83.8777 19.514C83.8777 20.0367 83.9617 20.48 84.1297 20.844C84.2977 21.208 84.5357 21.4833 84.8437 21.67C85.1517 21.8567 85.5157 21.95 85.9357 21.95C86.4023 21.95 86.7803 21.8613 87.0697 21.684C87.359 21.5067 87.5877 21.2593 87.7557 20.942L88.9457 21.502C88.7777 21.838 88.549 22.132 88.2597 22.384C87.9797 22.6267 87.6437 22.8133 87.2517 22.944C86.8597 23.0747 86.4303 23.14 85.9637 23.14ZM90.9774 23V16H92.2514L92.3914 17.26C92.5781 16.8027 92.8534 16.4573 93.2174 16.224C93.5908 15.9813 94.0481 15.86 94.5894 15.86C94.7294 15.86 94.8694 15.874 95.0094 15.902C95.1494 15.9207 95.2661 15.9533 95.3594 16L95.1494 17.316C95.0468 17.2787 94.9301 17.2507 94.7994 17.232C94.6781 17.204 94.5101 17.19 94.2954 17.19C94.0061 17.19 93.7214 17.2693 93.4414 17.428C93.1614 17.5773 92.9281 17.806 92.7414 18.114C92.5641 18.422 92.4754 18.814 92.4754 19.29V23H90.9774ZM101.026 25.94V16H102.356L102.468 17.96L102.272 17.722C102.384 17.358 102.557 17.036 102.79 16.756C103.024 16.476 103.313 16.2567 103.658 16.098C104.013 15.9393 104.4 15.86 104.82 15.86C105.39 15.86 105.908 16.0047 106.374 16.294C106.841 16.5833 107.21 16.9987 107.48 17.54C107.751 18.072 107.886 18.7207 107.886 19.486C107.886 20.2513 107.746 20.9093 107.466 21.46C107.196 22.0013 106.822 22.4167 106.346 22.706C105.88 22.9953 105.357 23.14 104.778 23.14C104.181 23.14 103.672 22.986 103.252 22.678C102.832 22.3607 102.534 21.9593 102.356 21.474L102.524 21.236V25.94H101.026ZM104.456 21.922C105.063 21.922 105.534 21.7073 105.87 21.278C106.216 20.8487 106.388 20.256 106.388 19.5C106.388 18.744 106.22 18.1513 105.884 17.722C105.548 17.2833 105.082 17.064 104.484 17.064C104.092 17.064 103.747 17.1667 103.448 17.372C103.159 17.568 102.93 17.848 102.762 18.212C102.604 18.5667 102.524 18.996 102.524 19.5C102.524 19.9947 102.604 20.424 102.762 20.788C102.921 21.152 103.145 21.432 103.434 21.628C103.724 21.824 104.064 21.922 104.456 21.922ZM109.804 23V12.85H111.302V17.12C111.535 16.6813 111.848 16.364 112.24 16.168C112.641 15.9627 113.084 15.86 113.57 15.86C114.064 15.86 114.508 15.958 114.9 16.154C115.301 16.3407 115.618 16.6253 115.852 17.008C116.085 17.3907 116.202 17.876 116.202 18.464V23H114.704V18.94C114.704 18.2493 114.559 17.7687 114.27 17.498C113.99 17.2273 113.635 17.092 113.206 17.092C112.907 17.092 112.608 17.1667 112.31 17.316C112.02 17.456 111.778 17.6893 111.582 18.016C111.395 18.3333 111.302 18.7627 111.302 19.304V23H109.804ZM121.51 15.86C122.191 15.86 122.793 16.0047 123.316 16.294C123.838 16.5833 124.244 17.0033 124.534 17.554C124.832 18.0953 124.982 18.744 124.982 19.5C124.982 20.256 124.832 20.9093 124.534 21.46C124.244 22.0013 123.838 22.4167 123.316 22.706C122.793 22.9953 122.191 23.14 121.51 23.14C120.828 23.14 120.226 22.9953 119.704 22.706C119.181 22.4167 118.77 22.0013 118.472 21.46C118.173 20.9093 118.024 20.256 118.024 19.5C118.024 18.744 118.173 18.0953 118.472 17.554C118.77 17.0033 119.181 16.5833 119.704 16.294C120.226 16.0047 120.828 15.86 121.51 15.86ZM121.51 17.036C121.09 17.036 120.73 17.134 120.432 17.33C120.142 17.5167 119.918 17.792 119.76 18.156C119.601 18.52 119.522 18.968 119.522 19.5C119.522 20.0227 119.601 20.4707 119.76 20.844C119.918 21.208 120.142 21.488 120.432 21.684C120.73 21.8707 121.09 21.964 121.51 21.964C121.93 21.964 122.284 21.8707 122.574 21.684C122.863 21.488 123.087 21.208 123.246 20.844C123.404 20.4707 123.484 20.0227 123.484 19.5C123.484 18.968 123.404 18.52 123.246 18.156C123.087 17.792 122.863 17.5167 122.574 17.33C122.284 17.134 121.93 17.036 121.51 17.036ZM128.814 13.942V20.9C128.814 21.2453 128.903 21.4973 129.08 21.656C129.267 21.8147 129.514 21.894 129.822 21.894C130.074 21.894 130.294 21.8567 130.48 21.782C130.667 21.698 130.84 21.586 130.998 21.446L131.334 22.538C131.12 22.7247 130.854 22.874 130.536 22.986C130.228 23.0887 129.883 23.14 129.5 23.14C129.099 23.14 128.73 23.0747 128.394 22.944C128.058 22.8133 127.797 22.6033 127.61 22.314C127.424 22.0153 127.326 21.628 127.316 21.152V14.362L128.814 13.942ZM131.222 16V17.176H125.972V16H131.222ZM135.742 15.86C136.423 15.86 137.025 16.0047 137.548 16.294C138.071 16.5833 138.477 17.0033 138.766 17.554C139.065 18.0953 139.214 18.744 139.214 19.5C139.214 20.256 139.065 20.9093 138.766 21.46C138.477 22.0013 138.071 22.4167 137.548 22.706C137.025 22.9953 136.423 23.14 135.742 23.14C135.061 23.14 134.459 22.9953 133.936 22.706C133.413 22.4167 133.003 22.0013 132.704 21.46C132.405 20.9093 132.256 20.256 132.256 19.5C132.256 18.744 132.405 18.0953 132.704 17.554C133.003 17.0033 133.413 16.5833 133.936 16.294C134.459 16.0047 135.061 15.86 135.742 15.86ZM135.742 17.036C135.322 17.036 134.963 17.134 134.664 17.33C134.375 17.5167 134.151 17.792 133.992 18.156C133.833 18.52 133.754 18.968 133.754 19.5C133.754 20.0227 133.833 20.4707 133.992 20.844C134.151 21.208 134.375 21.488 134.664 21.684C134.963 21.8707 135.322 21.964 135.742 21.964C136.162 21.964 136.517 21.8707 136.806 21.684C137.095 21.488 137.319 21.208 137.478 20.844C137.637 20.4707 137.716 20.0227 137.716 19.5C137.716 18.968 137.637 18.52 137.478 18.156C137.319 17.792 137.095 17.5167 136.806 17.33C136.517 17.134 136.162 17.036 135.742 17.036Z" fill="#306685"/>
</svg>
