<svg width="95" height="11" viewBox="0 0 95 11" fill="none" xmlns="http://www.w3.org/2000/svg">
<path d="M2.60637 2.04C2.42637 2.04 2.2797 1.98667 2.16637 1.88C2.0597 1.76667 2.00637 1.62 2.00637 1.44C2.00637 1.26 2.0597 1.11667 2.16637 1.01C2.2797 0.896666 2.42637 0.84 2.60637 0.84C2.78637 0.84 2.9297 0.896666 3.03637 1.01C3.1497 1.11667 3.20637 1.26 3.20637 1.44C3.20637 1.62 3.1497 1.76667 3.03637 1.88C2.9297 1.98667 2.78637 2.04 2.60637 2.04ZM3.00637 3V8.51C3.00637 8.92333 2.92637 9.25 2.76637 9.49C2.60637 9.73 2.4097 9.9 2.17637 10C1.94303 10.1 1.71303 10.15 1.48637 10.15C1.2797 10.15 1.0897 10.1167 0.916367 10.05C0.743034 9.99 0.5997 9.91333 0.486367 9.82L0.656367 9.06C0.749701 9.14667 0.866367 9.22 1.00637 9.28C1.14637 9.34 1.30303 9.37 1.47637 9.37C1.6897 9.37 1.86303 9.3 1.99637 9.16C2.13637 9.02 2.20637 8.77667 2.20637 8.43V3H3.00637ZM4.86262 10.1V3H5.56262L5.63262 4.22L5.52262 4.08C5.60928 3.84667 5.73928 3.64333 5.91262 3.47C6.08595 3.29 6.29595 3.15 6.54262 3.05C6.78928 2.95 7.05595 2.9 7.34262 2.9C7.74928 2.9 8.12262 3.00333 8.46262 3.21C8.80928 3.41667 9.08595 3.71333 9.29262 4.1C9.49928 4.48667 9.60262 4.95333 9.60262 5.5C9.60262 6.04 9.49595 6.50667 9.28262 6.9C9.07595 7.28667 8.79928 7.58333 8.45262 7.79C8.10595 7.99667 7.72595 8.1 7.31262 8.1C6.89928 8.1 6.53595 8 6.22262 7.8C5.91595 7.59333 5.69595 7.33333 5.56262 7.02L5.66262 6.87V10.1H4.86262ZM7.23262 7.4C7.72595 7.4 8.10928 7.22667 8.38262 6.88C8.66262 6.53333 8.80262 6.07333 8.80262 5.5C8.80262 4.92667 8.66595 4.46667 8.39262 4.12C8.12595 3.77333 7.74928 3.6 7.26262 3.6C6.94262 3.6 6.66262 3.68 6.42262 3.84C6.18262 3.99333 5.99595 4.21333 5.86262 4.5C5.72928 4.78 5.66262 5.11333 5.66262 5.5C5.66262 5.88 5.72595 6.21333 5.85262 6.5C5.98595 6.78667 6.16928 7.01 6.40262 7.17C6.64262 7.32333 6.91928 7.4 7.23262 7.4ZM15.3421 2.08L15.5221 2.79C15.5155 2.79 15.5055 2.79 15.4921 2.79C15.4788 2.79 15.4655 2.79 15.4521 2.79C15.1255 2.79 14.8721 2.85667 14.6921 2.99C14.5188 3.11667 14.4321 3.32333 14.4321 3.61L13.9421 3.36C13.9421 3.1 14.0021 2.87333 14.1221 2.68C14.2421 2.48667 14.4055 2.34 14.6121 2.24C14.8188 2.13333 15.0455 2.08 15.2921 2.08C15.2988 2.08 15.3055 2.08 15.3121 2.08C15.3255 2.08 15.3355 2.08 15.3421 2.08ZM13.8221 7.36C14.2955 7.36 14.6655 7.47 14.9321 7.69C15.1988 7.90333 15.3321 8.19 15.3321 8.55C15.3321 8.87667 15.2221 9.16 15.0021 9.4C14.7888 9.64 14.4988 9.82333 14.1321 9.95C13.7721 10.0833 13.3655 10.15 12.9121 10.15C12.1255 10.15 11.5355 10.0167 11.1421 9.75C10.7555 9.48333 10.5621 9.16333 10.5621 8.79C10.5621 8.52333 10.6488 8.28333 10.8221 8.07C11.0021 7.86333 11.3021 7.74667 11.7221 7.72L11.6521 7.87C11.4255 7.81 11.2321 7.71 11.0721 7.57C10.9188 7.42333 10.8421 7.21333 10.8421 6.94C10.8421 6.66667 10.9421 6.43333 11.1421 6.24C11.3488 6.04 11.6521 5.91667 12.0521 5.87L12.5821 6.14H12.4821C12.1555 6.17333 11.9221 6.25667 11.7821 6.39C11.6488 6.51667 11.5821 6.65667 11.5821 6.81C11.5821 6.99667 11.6488 7.13667 11.7821 7.23C11.9221 7.31667 12.1155 7.36 12.3621 7.36H13.8221ZM12.9021 9.48C13.2888 9.48 13.6055 9.44 13.8521 9.36C14.1055 9.28 14.2921 9.17667 14.4121 9.05C14.5321 8.92333 14.5921 8.78667 14.5921 8.64C14.5921 8.46 14.5188 8.31667 14.3721 8.21C14.2321 8.10333 13.9755 8.05 13.6021 8.05H12.0621C11.8488 8.05 11.6688 8.10333 11.5221 8.21C11.3755 8.32333 11.3021 8.47667 11.3021 8.67C11.3021 8.91667 11.4421 9.11333 11.7221 9.26C12.0088 9.40667 12.4021 9.48 12.9021 9.48ZM12.8321 2.9C13.2321 2.9 13.5855 2.97333 13.8921 3.12C14.2055 3.26 14.4488 3.45667 14.6221 3.71C14.7955 3.96333 14.8821 4.25667 14.8821 4.59C14.8821 4.91667 14.7955 5.21 14.6221 5.47C14.4488 5.72333 14.2055 5.92333 13.8921 6.07C13.5855 6.21 13.2321 6.28 12.8321 6.28C12.1721 6.28 11.6655 6.12333 11.3121 5.81C10.9588 5.49 10.7821 5.08333 10.7821 4.59C10.7821 4.25667 10.8688 3.96333 11.0421 3.71C11.2221 3.45667 11.4655 3.26 11.7721 3.12C12.0788 2.97333 12.4321 2.9 12.8321 2.9ZM12.8321 3.55C12.4855 3.55 12.1955 3.64667 11.9621 3.84C11.7288 4.02667 11.6121 4.27667 11.6121 4.59C11.6121 4.89667 11.7288 5.14667 11.9621 5.34C12.1955 5.53333 12.4855 5.63 12.8321 5.63C13.1788 5.63 13.4688 5.53333 13.7021 5.34C13.9355 5.14667 14.0521 4.89667 14.0521 4.59C14.0521 4.27667 13.9355 4.02667 13.7021 3.84C13.4688 3.64667 13.1788 3.55 12.8321 3.55ZM16.8544 6.8C17.0144 6.8 17.1477 6.84333 17.2544 6.93C17.3677 7.01 17.4544 7.12333 17.5144 7.27C17.5744 7.41 17.6044 7.57667 17.6044 7.77C17.6044 7.99 17.5644 8.20667 17.4844 8.42C17.4111 8.63333 17.2944 8.83 17.1344 9.01C16.9744 9.19 16.7677 9.34 16.5144 9.46L16.0944 9.07C16.2744 9.01 16.4311 8.92667 16.5644 8.82C16.7044 8.71333 16.8177 8.59333 16.9044 8.46C16.9911 8.32667 17.0477 8.19 17.0744 8.05L17.0344 8.03C17.0077 8.05 16.9744 8.06667 16.9344 8.08C16.8944 8.09333 16.8344 8.1 16.7544 8.1C16.6744 8.1 16.5911 8.07667 16.5044 8.03C16.4244 7.98333 16.3544 7.91667 16.2944 7.83C16.2344 7.73667 16.2044 7.61667 16.2044 7.47C16.2044 7.35 16.2344 7.24 16.2944 7.14C16.3544 7.03333 16.4311 6.95 16.5244 6.89C16.6244 6.83 16.7344 6.8 16.8544 6.8ZM22.5189 10.1V3H23.2189L23.2889 4.22L23.1789 4.08C23.2655 3.84667 23.3955 3.64333 23.5689 3.47C23.7422 3.29 23.9522 3.15 24.1989 3.05C24.4455 2.95 24.7122 2.9 24.9989 2.9C25.4055 2.9 25.7789 3.00333 26.1189 3.21C26.4655 3.41667 26.7422 3.71333 26.9489 4.1C27.1555 4.48667 27.2589 4.95333 27.2589 5.5C27.2589 6.04 27.1522 6.50667 26.9389 6.9C26.7322 7.28667 26.4555 7.58333 26.1089 7.79C25.7622 7.99667 25.3822 8.1 24.9689 8.1C24.5555 8.1 24.1922 8 23.8789 7.8C23.5722 7.59333 23.3522 7.33333 23.2189 7.02L23.3189 6.87V10.1H22.5189ZM24.8889 7.4C25.3822 7.4 25.7655 7.22667 26.0389 6.88C26.3189 6.53333 26.4589 6.07333 26.4589 5.5C26.4589 4.92667 26.3222 4.46667 26.0489 4.12C25.7822 3.77333 25.4055 3.6 24.9189 3.6C24.5989 3.6 24.3189 3.68 24.0789 3.84C23.8389 3.99333 23.6522 4.21333 23.5189 4.5C23.3855 4.78 23.3189 5.11333 23.3189 5.5C23.3189 5.88 23.3822 6.21333 23.5089 6.5C23.6422 6.78667 23.8255 7.01 24.0589 7.17C24.2989 7.32333 24.5755 7.4 24.8889 7.4ZM28.7884 8V3H29.4884L29.5584 4.12L29.4284 4.01C29.5351 3.74333 29.6784 3.53 29.8584 3.37C30.0384 3.20333 30.2451 3.08333 30.4784 3.01C30.7184 2.93667 30.9651 2.9 31.2184 2.9C31.5784 2.9 31.9051 2.97 32.1984 3.11C32.4917 3.24333 32.7251 3.45 32.8984 3.73C33.0784 4.01 33.1684 4.36667 33.1684 4.8V8H32.3684V5.08C32.3684 4.52667 32.2484 4.14333 32.0084 3.93C31.7751 3.71 31.4851 3.6 31.1384 3.6C30.8984 3.6 30.6584 3.65667 30.4184 3.77C30.1784 3.88333 29.9784 4.06667 29.8184 4.32C29.6651 4.57333 29.5884 4.91333 29.5884 5.34V8H28.7884ZM39.1898 2.08L39.3698 2.79C39.3631 2.79 39.3531 2.79 39.3398 2.79C39.3265 2.79 39.3131 2.79 39.2998 2.79C38.9731 2.79 38.7198 2.85667 38.5398 2.99C38.3665 3.11667 38.2798 3.32333 38.2798 3.61L37.7898 3.36C37.7898 3.1 37.8498 2.87333 37.9698 2.68C38.0898 2.48667 38.2531 2.34 38.4598 2.24C38.6665 2.13333 38.8931 2.08 39.1398 2.08C39.1465 2.08 39.1531 2.08 39.1598 2.08C39.1731 2.08 39.1831 2.08 39.1898 2.08ZM37.6698 7.36C38.1431 7.36 38.5131 7.47 38.7798 7.69C39.0465 7.90333 39.1798 8.19 39.1798 8.55C39.1798 8.87667 39.0698 9.16 38.8498 9.4C38.6365 9.64 38.3465 9.82333 37.9798 9.95C37.6198 10.0833 37.2131 10.15 36.7598 10.15C35.9731 10.15 35.3831 10.0167 34.9898 9.75C34.6031 9.48333 34.4098 9.16333 34.4098 8.79C34.4098 8.52333 34.4965 8.28333 34.6698 8.07C34.8498 7.86333 35.1498 7.74667 35.5698 7.72L35.4998 7.87C35.2731 7.81 35.0798 7.71 34.9198 7.57C34.7665 7.42333 34.6898 7.21333 34.6898 6.94C34.6898 6.66667 34.7898 6.43333 34.9898 6.24C35.1965 6.04 35.4998 5.91667 35.8998 5.87L36.4298 6.14H36.3298C36.0031 6.17333 35.7698 6.25667 35.6298 6.39C35.4965 6.51667 35.4298 6.65667 35.4298 6.81C35.4298 6.99667 35.4965 7.13667 35.6298 7.23C35.7698 7.31667 35.9631 7.36 36.2098 7.36H37.6698ZM36.7498 9.48C37.1365 9.48 37.4531 9.44 37.6998 9.36C37.9531 9.28 38.1398 9.17667 38.2598 9.05C38.3798 8.92333 38.4398 8.78667 38.4398 8.64C38.4398 8.46 38.3665 8.31667 38.2198 8.21C38.0798 8.10333 37.8231 8.05 37.4498 8.05H35.9098C35.6965 8.05 35.5165 8.10333 35.3698 8.21C35.2231 8.32333 35.1498 8.47667 35.1498 8.67C35.1498 8.91667 35.2898 9.11333 35.5698 9.26C35.8565 9.40667 36.2498 9.48 36.7498 9.48ZM36.6798 2.9C37.0798 2.9 37.4331 2.97333 37.7398 3.12C38.0531 3.26 38.2965 3.45667 38.4698 3.71C38.6431 3.96333 38.7298 4.25667 38.7298 4.59C38.7298 4.91667 38.6431 5.21 38.4698 5.47C38.2965 5.72333 38.0531 5.92333 37.7398 6.07C37.4331 6.21 37.0798 6.28 36.6798 6.28C36.0198 6.28 35.5131 6.12333 35.1598 5.81C34.8065 5.49 34.6298 5.08333 34.6298 4.59C34.6298 4.25667 34.7165 3.96333 34.8898 3.71C35.0698 3.45667 35.3131 3.26 35.6198 3.12C35.9265 2.97333 36.2798 2.9 36.6798 2.9ZM36.6798 3.55C36.3331 3.55 36.0431 3.64667 35.8098 3.84C35.5765 4.02667 35.4598 4.27667 35.4598 4.59C35.4598 4.89667 35.5765 5.14667 35.8098 5.34C36.0431 5.53333 36.3331 5.63 36.6798 5.63C37.0265 5.63 37.3165 5.53333 37.5498 5.34C37.7831 5.14667 37.8998 4.89667 37.8998 4.59C37.8998 4.27667 37.7831 4.02667 37.5498 3.84C37.3165 3.64667 37.0265 3.55 36.6798 3.55ZM44.2603 2.9C44.4536 2.9 44.6103 2.96 44.7303 3.08C44.8503 3.2 44.9103 3.35667 44.9103 3.55C44.9103 3.74333 44.8503 3.9 44.7303 4.02C44.6103 4.14 44.4536 4.2 44.2603 4.2C44.0669 4.2 43.9103 4.14 43.7903 4.02C43.6703 3.9 43.6103 3.74333 43.6103 3.55C43.6103 3.35667 43.6703 3.2 43.7903 3.08C43.9103 2.96 44.0669 2.9 44.2603 2.9ZM44.2603 6.8C44.4536 6.8 44.6103 6.86 44.7303 6.98C44.8503 7.1 44.9103 7.25667 44.9103 7.45C44.9103 7.64333 44.8503 7.8 44.7303 7.92C44.6103 8.04 44.4536 8.1 44.2603 8.1C44.0669 8.1 43.9103 8.04 43.7903 7.92C43.6703 7.8 43.6103 7.64333 43.6103 7.45C43.6103 7.25667 43.6703 7.1 43.7903 6.98C43.9103 6.86 44.0669 6.8 44.2603 6.8ZM52.8075 8V6.27H49.5875V5.68L52.5975 1.4H53.6075V5.58H54.7775V6.27H53.6075V8H52.8075ZM50.4375 5.58H52.8075V3.11C52.8075 2.93667 52.8108 2.76 52.8175 2.58C52.8308 2.4 52.8408 2.22333 52.8475 2.05H52.8275C52.7475 2.21667 52.6441 2.40333 52.5175 2.61C52.3908 2.81667 52.2741 2.99667 52.1675 3.15L50.4375 5.58ZM56.1907 8V3H56.8907L56.9407 3.78C57.1207 3.47333 57.3541 3.25 57.6407 3.11C57.9341 2.97 58.2341 2.9 58.5407 2.9C58.8941 2.9 59.2274 2.98 59.5407 3.14C59.8541 3.3 60.0941 3.54667 60.2607 3.88C60.3674 3.65333 60.5174 3.47 60.7107 3.33C60.9041 3.18333 61.1141 3.07667 61.3407 3.01C61.5741 2.93667 61.7941 2.9 62.0007 2.9C62.3207 2.9 62.6241 2.96667 62.9107 3.1C63.2041 3.23333 63.4441 3.44 63.6307 3.72C63.8174 4 63.9107 4.36 63.9107 4.8V8H63.1107V4.88C63.1107 4.42667 62.9974 4.1 62.7707 3.9C62.5441 3.7 62.2641 3.6 61.9307 3.6C61.6707 3.6 61.4274 3.66333 61.2007 3.79C60.9741 3.91667 60.7907 4.10333 60.6507 4.35C60.5174 4.59667 60.4507 4.9 60.4507 5.26V8H59.6507V4.88C59.6507 4.42667 59.5374 4.1 59.3107 3.9C59.0841 3.7 58.8041 3.6 58.4707 3.6C58.2507 3.6 58.0241 3.66 57.7907 3.78C57.5641 3.89333 57.3741 4.07667 57.2207 4.33C57.0674 4.58333 56.9907 4.91667 56.9907 5.33V8H56.1907ZM67.792 2.9C68.2653 2.9 68.682 3.00333 69.042 3.21C69.4087 3.41667 69.6953 3.71667 69.902 4.11C70.1087 4.49667 70.212 4.96 70.212 5.5C70.212 6.04 70.1087 6.50667 69.902 6.9C69.6953 7.28667 69.4087 7.58333 69.042 7.79C68.682 7.99667 68.2653 8.1 67.792 8.1C67.3253 8.1 66.9087 7.99667 66.542 7.79C66.1753 7.58333 65.8887 7.28667 65.682 6.9C65.4753 6.50667 65.372 6.04 65.372 5.5C65.372 4.96 65.4753 4.49667 65.682 4.11C65.8887 3.71667 66.1753 3.41667 66.542 3.21C66.9087 3.00333 67.3253 2.9 67.792 2.9ZM67.792 3.59C67.452 3.59 67.162 3.66667 66.922 3.82C66.682 3.97333 66.4953 4.19333 66.362 4.48C66.2353 4.76 66.172 5.1 66.172 5.5C66.172 5.89333 66.2353 6.23333 66.362 6.52C66.4953 6.80667 66.682 7.02667 66.922 7.18C67.162 7.33333 67.452 7.41 67.792 7.41C68.132 7.41 68.422 7.33333 68.662 7.18C68.902 7.02667 69.0853 6.80667 69.212 6.52C69.3453 6.23333 69.412 5.89333 69.412 5.5C69.412 5.1 69.3453 4.76 69.212 4.48C69.0853 4.19333 68.902 3.97333 68.662 3.82C68.422 3.66667 68.132 3.59 67.792 3.59ZM75.1263 8V3H75.8263L75.8763 3.78C76.0563 3.47333 76.2896 3.25 76.5763 3.11C76.8696 2.97 77.1696 2.9 77.4763 2.9C77.8296 2.9 78.163 2.98 78.4763 3.14C78.7896 3.3 79.0296 3.54667 79.1963 3.88C79.303 3.65333 79.453 3.47 79.6463 3.33C79.8396 3.18333 80.0496 3.07667 80.2763 3.01C80.5096 2.93667 80.7296 2.9 80.9363 2.9C81.2563 2.9 81.5596 2.96667 81.8463 3.1C82.1396 3.23333 82.3796 3.44 82.5663 3.72C82.753 4 82.8463 4.36 82.8463 4.8V8H82.0463V4.88C82.0463 4.42667 81.933 4.1 81.7063 3.9C81.4796 3.7 81.1996 3.6 80.8663 3.6C80.6063 3.6 80.363 3.66333 80.1363 3.79C79.9096 3.91667 79.7263 4.10333 79.5863 4.35C79.453 4.59667 79.3863 4.9 79.3863 5.26V8H78.5863V4.88C78.5863 4.42667 78.473 4.1 78.2463 3.9C78.0196 3.7 77.7396 3.6 77.4063 3.6C77.1863 3.6 76.9596 3.66 76.7263 3.78C76.4996 3.89333 76.3096 4.07667 76.1563 4.33C76.003 4.58333 75.9263 4.91667 75.9263 5.33V8H75.1263ZM87.5775 4.77C87.5775 4.39667 87.4775 4.11 87.2775 3.91C87.0775 3.70333 86.7942 3.6 86.4275 3.6C86.0809 3.6 85.7875 3.67667 85.5475 3.83C85.3075 3.97667 85.1309 4.21667 85.0175 4.55L84.3675 4.15C84.5009 3.77667 84.7475 3.47667 85.1075 3.25C85.4675 3.01667 85.9142 2.9 86.4475 2.9C86.8075 2.9 87.1342 2.96333 87.4275 3.09C87.7209 3.21 87.9509 3.39667 88.1175 3.65C88.2909 3.89667 88.3775 4.21667 88.3775 4.61V7.03C88.3775 7.27 88.5042 7.39 88.7575 7.39C88.8842 7.39 89.0075 7.37333 89.1275 7.34L89.0875 7.97C88.9542 8.03667 88.7809 8.07 88.5675 8.07C88.3742 8.07 88.2009 8.03333 88.0475 7.96C87.8942 7.88667 87.7742 7.77667 87.6875 7.63C87.6009 7.47667 87.5575 7.28667 87.5575 7.06V6.96L87.7575 6.99C87.6775 7.25 87.5409 7.46333 87.3475 7.63C87.1542 7.79 86.9375 7.91 86.6975 7.99C86.4575 8.06333 86.2209 8.1 85.9875 8.1C85.6942 8.1 85.4209 8.05 85.1675 7.95C84.9142 7.85 84.7109 7.7 84.5575 7.5C84.4109 7.29333 84.3375 7.04 84.3375 6.74C84.3375 6.36667 84.4609 6.06 84.7075 5.82C84.9609 5.57333 85.3109 5.40667 85.7575 5.32L87.7375 4.93V5.59L86.1275 5.92C85.8009 5.98667 85.5575 6.08 85.3975 6.2C85.2375 6.32 85.1575 6.48667 85.1575 6.7C85.1575 6.90667 85.2375 7.07667 85.3975 7.21C85.5642 7.33667 85.7975 7.4 86.0975 7.4C86.2909 7.4 86.4742 7.37667 86.6475 7.33C86.8275 7.27667 86.9875 7.2 87.1275 7.1C87.2675 6.99333 87.3775 6.86333 87.4575 6.71C87.5375 6.55 87.5775 6.36333 87.5775 6.15V4.77ZM90.8016 3L92.2916 5.09L92.3416 5.16L94.3916 8H93.4116L91.8616 5.83L91.7716 5.72L89.8016 3H90.8016ZM94.3616 3L92.3816 5.67H92.3316L90.6116 8H89.6816L91.8616 5.13H91.9216L93.4216 3H94.3616Z" fill="#444444"/>
</svg>
